<svg xmlns="http://www.w3.org/2000/svg" viewBox="0 0 800 480" role="img" aria-label="Students outside on a safe campus courtyard">
  <defs>
    <linearGradient id="g1" x1="0%" y1="0%" x2="0%" y2="100%">
      <stop offset="0%" stop-color="#10b981"/>
      <stop offset="100%" stop-color="#0ea5e9"/>
    </linearGradient>
  </defs>
  <rect width="800" height="480" fill="url(#g1)"/>
  <rect x="90" y="120" width="620" height="240" rx="40" fill="#0b1120" opacity="0.35"/>
  <rect x="130" y="160" width="540" height="160" rx="22" fill="#e2e8f0" opacity="0.2"/>
  <rect x="170" y="190" width="100" height="120" rx="20" fill="#f8fafc" opacity="0.9"/>
  <rect x="310" y="190" width="90" height="120" rx="20" fill="#f1f5f9" opacity="0.85"/>
  <rect x="440" y="190" width="110" height="120" rx="20" fill="#e2e8f0" opacity="0.85"/>
  <rect x="580" y="190" width="70" height="120" rx="20" fill="#cbd5e1" opacity="0.7"/>
  <rect x="180" y="270" width="60" height="10" rx="5" fill="#0ea5e9" opacity="0.7"/>
  <rect x="320" y="270" width="60" height="10" rx="5" fill="#06b6d4" opacity="0.7"/>
  <rect x="460" y="270" width="70" height="10" rx="5" fill="#22d3ee" opacity="0.7"/>
  <rect x="600" y="270" width="40" height="10" rx="5" fill="#fbbf24" opacity="0.8"/>
  <circle cx="400" cy="330" r="40" fill="#0b1120" opacity="0.4"/>
  <circle cx="200" cy="120" r="30" fill="#f8fafc" opacity="0.85"/>
  <circle cx="540" cy="100" r="24" fill="#f1f5f9" opacity="0.65"/>
  <text x="140" y="90" fill="#ecfeff" font-family="Inter, system-ui, sans-serif" font-size="24" font-weight="700">
    Safe Campus &amp; Community
  </text>
</svg>
