<svg xmlns="http://www.w3.org/2000/svg" viewBox="0 0 800 480" role="img" aria-label="Students collaborating on laptops">
  <defs>
    <linearGradient id="g1" x1="0%" y1="0%" x2="100%" y2="100%">
      <stop offset="0%" stop-color="#2563eb"/>
      <stop offset="100%" stop-color="#22d3ee"/>
    </linearGradient>
    <linearGradient id="g2" x1="0%" y1="100%" x2="100%" y2="0%">
      <stop offset="0%" stop-color="#0f172a" stop-opacity="0.6"/>
      <stop offset="100%" stop-color="#0ea5e9" stop-opacity="0.35"/>
    </linearGradient>
  </defs>
  <rect width="800" height="480" fill="url(#g1)"/>
  <rect x="120" y="110" width="560" height="260" rx="24" fill="url(#g2)"/>
  <rect x="170" y="160" width="220" height="40" rx="10" fill="#ffffff" opacity="0.9"/>
  <rect x="420" y="160" width="170" height="16" rx="8" fill="#e2e8f0" opacity="0.9"/>
  <rect x="420" y="188" width="120" height="16" rx="8" fill="#e2e8f0" opacity="0.75"/>
  <rect x="170" y="230" width="150" height="150" rx="18" fill="#1e293b" opacity="0.85"/>
  <rect x="340" y="230" width="120" height="24" rx="10" fill="#e2e8f0" opacity="0.85"/>
  <rect x="340" y="262" width="180" height="16" rx="8" fill="#cbd5e1" opacity="0.85"/>
  <rect x="340" y="286" width="160" height="14" rx="7" fill="#cbd5e1" opacity="0.8"/>
  <rect x="340" y="312" width="190" height="14" rx="7" fill="#cbd5e1" opacity="0.7"/>
  <circle cx="380" cy="360" r="18" fill="#22d3ee" opacity="0.9"/>
  <circle cx="420" cy="360" r="18" fill="#38bdf8" opacity="0.9"/>
  <circle cx="460" cy="360" r="18" fill="#0ea5e9" opacity="0.9"/>
  <text x="160" y="90" fill="#e2e8f0" font-family="Inter, system-ui, sans-serif" font-size="24" font-weight="700">Collaborative Learning</text>
</svg>

