<svg xmlns="http://www.w3.org/2000/svg" viewBox="0 0 800 480" role="img" aria-label="Student presenting in a science lab">
  <defs>
    <linearGradient id="g1" x1="0%" y1="0%" x2="100%" y2="0%">
      <stop offset="0%" stop-color="#0ea5e9"/>
      <stop offset="100%" stop-color="#6366f1"/>
    </linearGradient>
    <linearGradient id="g2" x1="0%" y1="100%" x2="0%" y2="0%">
      <stop offset="0%" stop-color="#0b1120" stop-opacity="0.55"/>
      <stop offset="100%" stop-color="#1e293b" stop-opacity="0.35"/>
    </linearGradient>
  </defs>
  <rect width="800" height="480" fill="url(#g1)"/>
  <rect x="110" y="110" width="580" height="260" rx="28" fill="url(#g2)"/>
  <rect x="160" y="150" width="230" height="130" rx="18" fill="#e2e8f0" opacity="0.85"/>
  <rect x="420" y="150" width="180" height="28" rx="12" fill="#38bdf8" opacity="0.9"/>
  <rect x="420" y="190" width="150" height="14" rx="8" fill="#cbd5e1" opacity="0.85"/>
  <rect x="420" y="212" width="170" height="14" rx="8" fill="#cbd5e1" opacity="0.8"/>
  <rect x="420" y="234" width="120" height="14" rx="8" fill="#cbd5e1" opacity="0.75"/>
  <rect x="240" y="310" width="320" height="10" rx="5" fill="#0ea5e9" opacity="0.8"/>
  <rect x="270" y="330" width="260" height="10" rx="5" fill="#22d3ee" opacity="0.8"/>
  <circle cx="500" cy="230" r="18" fill="#22d3ee" opacity="0.9"/>
  <circle cx="540" cy="230" r="18" fill="#0ea5e9" opacity="0.85"/>
  <circle cx="580" cy="230" r="18" fill="#6366f1" opacity="0.8"/>
  <text x="150" y="90" fill="#e0f2fe" font-family="Inter, system-ui, sans-serif" font-size="24" font-weight="700">
  Science, Research &amp; Innovation
</text>
</svg>

