<svg width="900" height="500" viewBox="0 0 900 500" fill="none" xmlns="http://www.w3.org/2000/svg">
  <defs>
    <linearGradient id="promoBg" x1="0%" y1="0%" x2="100%" y2="100%">
      <stop offset="0%" style="stop-color:#852991;stop-opacity:1" />
      <stop offset="50%" style="stop-color:#9a4ba8;stop-opacity:1" />
      <stop offset="100%" style="stop-color:#852991;stop-opacity:1" />
    </linearGradient>
    <linearGradient id="accentGrad" x1="0%" y1="0%" x2="100%" y2="0%">
      <stop offset="0%" style="stop-color:#d6c7df;stop-opacity:1" />
      <stop offset="100%" style="stop-color:#f3eef7;stop-opacity:1" />
    </linearGradient>
  </defs>
  <rect width="900" height="500" rx="24" fill="url(#promoBg)"/>
  <circle cx="150" cy="120" r="60" fill="#d6c7df" opacity="0.3"/>
  <circle cx="750" cy="380" r="80" fill="#d6c7df" opacity="0.25"/>
  <circle cx="800" cy="100" r="40" fill="#d6c7df" opacity="0.2"/>
  <rect x="50" y="180" width="800" height="140" rx="16" fill="url(#accentGrad)" opacity="0.95"/>
  <text x="450" y="240" fill="#852991" font-family="Inter, system-ui, sans-serif" font-size="42" font-weight="700" text-anchor="middle">Intake is Ongoing!</text>
  <text x="450" y="280" fill="#852991" font-family="Inter, system-ui, sans-serif" font-size="36" font-weight="600" text-anchor="middle">About 50% Off Tuition Fees Waiver</text>
  <rect x="300" y="340" width="300" height="80" rx="12" fill="white" opacity="0.2"/>
  <text x="450" y="385" fill="#f3eef7" font-family="Inter, system-ui, sans-serif" font-size="20" font-weight="600" text-anchor="middle">Limited Time Offer</text>
  <text x="450" y="410" fill="#d6c7df" font-family="Inter, system-ui, sans-serif" font-size="16" font-weight="500" text-anchor="middle">Apply Now to Secure Your Spot</text>
  <path d="M200 100 L220 120 L200 140" stroke="#d6c7df" stroke-width="4" stroke-linecap="round" stroke-linejoin="round" fill="none" opacity="0.8"/>
  <path d="M700 400 L720 420 L700 440" stroke="#d6c7df" stroke-width="4" stroke-linecap="round" stroke-linejoin="round" fill="none" opacity="0.8"/>
  <circle cx="100" cy="400" r="8" fill="#d6c7df" opacity="0.7"/>
  <circle cx="800" cy="200" r="8" fill="#d6c7df" opacity="0.7"/>
  <circle cx="850" cy="450" r="6" fill="#d6c7df" opacity="0.6"/>
</svg>

